<mxfile host="app.diagrams.net" modified="2024-01-16T14:03:23.609Z" agent="Mozilla/5.0 (Windows NT 10.0; Win64; x64) AppleWebKit/537.36 (KHTML, like Gecko) Chrome/120.0.0.0 Safari/537.36" etag="nMw34ZbIvQlRGRVqSxyx" version="22.1.18" type="device">
  <diagram name="Seite-1" id="oGx9q4ryM8869vcEq-Jp">
    <mxGraphModel dx="1434" dy="746" grid="1" gridSize="10" guides="1" tooltips="1" connect="1" arrows="1" fold="1" page="1" pageScale="1" pageWidth="1169" pageHeight="827" math="0" shadow="0">
      <root>
        <mxCell id="0" />
        <mxCell id="1" parent="0" />
        <mxCell id="-eUWRqWdqUH9GwN5srD7-58" value="LE Device" style="rounded=0;whiteSpace=wrap;html=1;fillColor=#f5f5f5;align=left;verticalAlign=top;strokeColor=#666666;fontColor=#333333;" parent="1" vertex="1">
          <mxGeometry x="70" y="570" width="120" height="150" as="geometry" />
        </mxCell>
        <mxCell id="-eUWRqWdqUH9GwN5srD7-57" value="LE/KKH Umgebung" style="rounded=0;whiteSpace=wrap;html=1;fillColor=#f5f5f5;align=left;verticalAlign=top;strokeColor=#878787;fontColor=#333333;" parent="1" vertex="1">
          <mxGeometry x="70" y="290" width="410" height="260" as="geometry" />
        </mxCell>
        <mxCell id="-eUWRqWdqUH9GwN5srD7-56" value="LE/KKH Umgebung" style="rounded=0;whiteSpace=wrap;html=1;fillColor=#f5f5f5;align=left;verticalAlign=top;strokeColor=#878787;fontColor=#333333;" parent="1" vertex="1">
          <mxGeometry x="70" y="80" width="410" height="190" as="geometry" />
        </mxCell>
        <mxCell id="rFX8mtm5hQzeOM3P0BqO-22" value="&lt;b&gt;RZ oder Cloud für KIM &lt;br&gt;2.0 Komponenten&lt;/b&gt;" style="rounded=0;whiteSpace=wrap;html=1;align=left;verticalAlign=top;fillColor=#f5f5f5;fontColor=#333333;strokeColor=#878787;" parent="1" vertex="1">
          <mxGeometry x="610" y="350" width="350" height="340" as="geometry" />
        </mxCell>
        <mxCell id="rFX8mtm5hQzeOM3P0BqO-12" value="Clientsystem" style="rounded=0;whiteSpace=wrap;html=1;align=left;verticalAlign=top;" parent="1" vertex="1">
          <mxGeometry x="80" y="360" width="110" height="180" as="geometry" />
        </mxCell>
        <mxCell id="mivEJl5hZgQegL4V_eV8-25" style="edgeStyle=orthogonalEdgeStyle;rounded=0;orthogonalLoop=1;jettySize=auto;html=1;entryX=0;entryY=0.5;entryDx=0;entryDy=0;" parent="1" edge="1">
          <mxGeometry relative="1" as="geometry">
            <mxPoint x="160" y="177" as="sourcePoint" />
            <mxPoint x="240" y="177" as="targetPoint" />
          </mxGeometry>
        </mxCell>
        <mxCell id="mivEJl5hZgQegL4V_eV8-26" style="edgeStyle=orthogonalEdgeStyle;rounded=0;orthogonalLoop=1;jettySize=auto;html=1;entryX=0;entryY=0.5;entryDx=0;entryDy=0;" parent="1" target="-eUWRqWdqUH9GwN5srD7-60" edge="1">
          <mxGeometry relative="1" as="geometry">
            <mxPoint x="320" y="177" as="sourcePoint" />
            <mxPoint x="400" y="177" as="targetPoint" />
          </mxGeometry>
        </mxCell>
        <mxCell id="rFX8mtm5hQzeOM3P0BqO-17" style="edgeStyle=orthogonalEdgeStyle;rounded=1;orthogonalLoop=1;jettySize=auto;html=1;entryX=0;entryY=0.5;entryDx=0;entryDy=0;exitX=1;exitY=0.5;exitDx=0;exitDy=0;" parent="1" source="rFX8mtm5hQzeOM3P0BqO-12" target="rFX8mtm5hQzeOM3P0BqO-16" edge="1">
          <mxGeometry relative="1" as="geometry">
            <mxPoint x="230" y="470" as="targetPoint" />
          </mxGeometry>
        </mxCell>
        <mxCell id="m09ME9klhIwmor1VgFxn-13" style="edgeStyle=orthogonalEdgeStyle;rounded=1;orthogonalLoop=1;jettySize=auto;html=1;entryX=0;entryY=0.5;entryDx=0;entryDy=0;strokeWidth=1;fillColor=#f8cecc;strokeColor=#b85450;spacing=1;exitX=1;exitY=0.5;exitDx=0;exitDy=0;" parent="1" source="rFX8mtm5hQzeOM3P0BqO-16" target="m09ME9klhIwmor1VgFxn-21" edge="1">
          <mxGeometry relative="1" as="geometry">
            <mxPoint x="340" y="470" as="sourcePoint" />
            <Array as="points">
              <mxPoint x="540" y="450" />
              <mxPoint x="540" y="325" />
            </Array>
          </mxGeometry>
        </mxCell>
        <mxCell id="m09ME9klhIwmor1VgFxn-14" value="Service Discovery im Internet&lt;br&gt;anhand der Mail-Domain für POP3 / SMTP /&lt;br&gt;KAS / AccountManager / URL Zert-Abfrage" style="edgeLabel;html=1;align=left;verticalAlign=middle;resizable=0;points=[];" parent="m09ME9klhIwmor1VgFxn-13" vertex="1" connectable="0">
          <mxGeometry x="0.6891" relative="1" as="geometry">
            <mxPoint x="58" y="-45" as="offset" />
          </mxGeometry>
        </mxCell>
        <mxCell id="rFX8mtm5hQzeOM3P0BqO-33" value="REST" style="edgeLabel;html=1;align=center;verticalAlign=middle;resizable=0;points=[];" parent="m09ME9klhIwmor1VgFxn-13" vertex="1" connectable="0">
          <mxGeometry x="0.7748" y="3" relative="1" as="geometry">
            <mxPoint y="18" as="offset" />
          </mxGeometry>
        </mxCell>
        <mxCell id="m09ME9klhIwmor1VgFxn-10" style="edgeStyle=orthogonalEdgeStyle;rounded=1;orthogonalLoop=1;jettySize=auto;html=1;entryX=0;entryY=0.5;entryDx=0;entryDy=0;fillColor=#f8cecc;strokeColor=#b85450;" parent="1" target="-eUWRqWdqUH9GwN5srD7-15" edge="1">
          <mxGeometry relative="1" as="geometry">
            <mxPoint x="160" y="660" as="sourcePoint" />
            <mxPoint x="610" y="735" as="targetPoint" />
            <Array as="points">
              <mxPoint x="570" y="660" />
              <mxPoint x="570" y="724" />
            </Array>
          </mxGeometry>
        </mxCell>
        <mxCell id="rFX8mtm5hQzeOM3P0BqO-34" style="edgeStyle=orthogonalEdgeStyle;rounded=1;orthogonalLoop=1;jettySize=auto;html=1;entryX=0;entryY=0.5;entryDx=0;entryDy=0;fillColor=#f8cecc;strokeColor=#b85450;exitX=1;exitY=0.5;exitDx=0;exitDy=0;" parent="1" target="m09ME9klhIwmor1VgFxn-21" edge="1">
          <mxGeometry relative="1" as="geometry">
            <Array as="points">
              <mxPoint x="570" y="660" />
              <mxPoint x="570" y="325" />
            </Array>
            <mxPoint x="160" y="660" as="sourcePoint" />
          </mxGeometry>
        </mxCell>
        <mxCell id="mivEJl5hZgQegL4V_eV8-24" style="edgeStyle=orthogonalEdgeStyle;rounded=0;orthogonalLoop=1;jettySize=auto;html=1;entryX=0;entryY=0.5;entryDx=0;entryDy=0;strokeWidth=5;fillColor=#f8cecc;strokeColor=#b85450;endArrow=none;endFill=0;exitX=1;exitY=0.5;exitDx=0;exitDy=0;" parent="1" source="-eUWRqWdqUH9GwN5srD7-60" target="rFX8mtm5hQzeOM3P0BqO-1" edge="1">
          <mxGeometry relative="1" as="geometry">
            <mxPoint x="630" y="177" as="targetPoint" />
            <mxPoint x="480" y="177" as="sourcePoint" />
          </mxGeometry>
        </mxCell>
        <mxCell id="rFX8mtm5hQzeOM3P0BqO-39" value="TI-Tunnel" style="edgeLabel;html=1;align=center;verticalAlign=middle;resizable=0;points=[];" parent="mivEJl5hZgQegL4V_eV8-24" vertex="1" connectable="0">
          <mxGeometry x="-0.4442" y="-1" relative="1" as="geometry">
            <mxPoint x="33" y="19" as="offset" />
          </mxGeometry>
        </mxCell>
        <mxCell id="mivEJl5hZgQegL4V_eV8-20" value="Fachdienst KIM 2.0&lt;br&gt;(Dual Stack KIM 1.5 und 2.0)" style="rounded=0;whiteSpace=wrap;html=1;align=center;verticalAlign=top;fillColor=#dae8fc;strokeColor=#6c8ebf;" parent="1" vertex="1">
          <mxGeometry x="690" y="390" width="240" height="290" as="geometry" />
        </mxCell>
        <mxCell id="m09ME9klhIwmor1VgFxn-6" style="edgeStyle=orthogonalEdgeStyle;rounded=0;orthogonalLoop=1;jettySize=auto;html=1;entryX=0;entryY=0.5;entryDx=0;entryDy=0;fillColor=#dae8fc;strokeColor=#6c8ebf;exitX=1;exitY=0.5;exitDx=0;exitDy=0;" parent="1" source="rFX8mtm5hQzeOM3P0BqO-1" edge="1">
          <mxGeometry relative="1" as="geometry">
            <mxPoint x="710" y="177" as="sourcePoint" />
            <mxPoint x="880" y="177" as="targetPoint" />
          </mxGeometry>
        </mxCell>
        <mxCell id="m09ME9klhIwmor1VgFxn-8" value="LDAP" style="edgeLabel;html=1;align=center;verticalAlign=middle;resizable=0;points=[];" parent="m09ME9klhIwmor1VgFxn-6" vertex="1" connectable="0">
          <mxGeometry x="0.7615" relative="1" as="geometry">
            <mxPoint x="-5" y="-20" as="offset" />
          </mxGeometry>
        </mxCell>
        <mxCell id="m09ME9klhIwmor1VgFxn-21" value="KIM Service Discovery" style="rounded=0;whiteSpace=wrap;html=1;fillColor=#dae8fc;strokeColor=#6c8ebf;" parent="1" vertex="1">
          <mxGeometry x="610" y="310" width="130" height="30" as="geometry" />
        </mxCell>
        <mxCell id="-eUWRqWdqUH9GwN5srD7-45" style="edgeStyle=orthogonalEdgeStyle;rounded=1;orthogonalLoop=1;jettySize=auto;html=1;entryX=0;entryY=0.5;entryDx=0;entryDy=0;fillColor=#dae8fc;strokeColor=#6c8ebf;exitX=1;exitY=0.5;exitDx=0;exitDy=0;" parent="1" source="rFX8mtm5hQzeOM3P0BqO-1" target="-eUWRqWdqUH9GwN5srD7-32" edge="1">
          <mxGeometry relative="1" as="geometry">
            <Array as="points">
              <mxPoint x="760" y="176" />
              <mxPoint x="840" y="176" />
              <mxPoint x="840" y="295" />
            </Array>
          </mxGeometry>
        </mxCell>
        <mxCell id="-eUWRqWdqUH9GwN5srD7-47" style="edgeStyle=orthogonalEdgeStyle;rounded=1;orthogonalLoop=1;jettySize=auto;html=1;entryX=0.5;entryY=0;entryDx=0;entryDy=0;fillColor=#dae8fc;strokeColor=#6c8ebf;exitX=1.02;exitY=0.48;exitDx=0;exitDy=0;exitPerimeter=0;" parent="1" source="rFX8mtm5hQzeOM3P0BqO-1" target="rFX8mtm5hQzeOM3P0BqO-23" edge="1">
          <mxGeometry relative="1" as="geometry">
            <Array as="points">
              <mxPoint x="762" y="177" />
              <mxPoint x="840" y="177" />
            </Array>
          </mxGeometry>
        </mxCell>
        <mxCell id="rFX8mtm5hQzeOM3P0BqO-1" value="VPN-ZugD" style="rounded=0;whiteSpace=wrap;html=1;fillColor=#fff2cc;strokeColor=#d6b656;" parent="1" vertex="1">
          <mxGeometry x="640" y="147" width="120" height="60" as="geometry" />
        </mxCell>
        <mxCell id="rFX8mtm5hQzeOM3P0BqO-2" value="Im KKH müssen CM wegen Abwärtskompatibilität KIM 1.x und 2.0&amp;nbsp;unterstützen" style="text;html=1;strokeColor=none;fillColor=none;align=left;verticalAlign=middle;whiteSpace=wrap;rounded=0;" parent="1" vertex="1">
          <mxGeometry x="209" y="320" width="180" height="30" as="geometry" />
        </mxCell>
        <mxCell id="rFX8mtm5hQzeOM3P0BqO-5" value="Konnektor muss für&lt;br&gt;S/MIME Zertifikate verschlüsseln können" style="text;html=1;strokeColor=none;fillColor=none;align=left;verticalAlign=middle;whiteSpace=wrap;rounded=0;" parent="1" vertex="1">
          <mxGeometry x="290" y="210" width="120" height="40" as="geometry" />
        </mxCell>
        <mxCell id="rFX8mtm5hQzeOM3P0BqO-8" style="edgeStyle=orthogonalEdgeStyle;rounded=0;orthogonalLoop=1;jettySize=auto;html=1;entryX=0;entryY=0.5;entryDx=0;entryDy=0;" parent="1" edge="1">
          <mxGeometry relative="1" as="geometry">
            <mxPoint x="320" y="380" as="sourcePoint" />
            <mxPoint x="400" y="380" as="targetPoint" />
          </mxGeometry>
        </mxCell>
        <mxCell id="dBSqW-nUZNY3NmuCGNXq-13" style="edgeStyle=orthogonalEdgeStyle;rounded=0;orthogonalLoop=1;jettySize=auto;html=1;entryX=0;entryY=0.5;entryDx=0;entryDy=0;fillColor=#f8cecc;strokeColor=#b85450;" parent="1" source="rFX8mtm5hQzeOM3P0BqO-16" target="rFX8mtm5hQzeOM3P0BqO-26" edge="1">
          <mxGeometry relative="1" as="geometry" />
        </mxCell>
        <mxCell id="dBSqW-nUZNY3NmuCGNXq-36" style="edgeStyle=orthogonalEdgeStyle;rounded=1;orthogonalLoop=1;jettySize=auto;html=1;entryX=0.5;entryY=0;entryDx=0;entryDy=0;fillColor=#f8cecc;strokeColor=#b85450;" parent="1" source="rFX8mtm5hQzeOM3P0BqO-16" target="dBSqW-nUZNY3NmuCGNXq-25" edge="1">
          <mxGeometry relative="1" as="geometry" />
        </mxCell>
        <mxCell id="dBSqW-nUZNY3NmuCGNXq-40" style="edgeStyle=orthogonalEdgeStyle;rounded=1;orthogonalLoop=1;jettySize=auto;html=1;entryX=0.5;entryY=0;entryDx=0;entryDy=0;fillColor=#f8cecc;strokeColor=#b85450;exitX=1;exitY=0.5;exitDx=0;exitDy=0;" parent="1" source="rFX8mtm5hQzeOM3P0BqO-16" target="-eUWRqWdqUH9GwN5srD7-26" edge="1">
          <mxGeometry relative="1" as="geometry">
            <Array as="points">
              <mxPoint x="425" y="450" />
            </Array>
          </mxGeometry>
        </mxCell>
        <mxCell id="dBSqW-nUZNY3NmuCGNXq-42" style="edgeStyle=orthogonalEdgeStyle;rounded=1;orthogonalLoop=1;jettySize=auto;html=1;entryX=0;entryY=0.5;entryDx=0;entryDy=0;fillColor=#f8cecc;strokeColor=#b85450;exitX=1;exitY=0.5;exitDx=0;exitDy=0;" parent="1" source="rFX8mtm5hQzeOM3P0BqO-16" target="-eUWRqWdqUH9GwN5srD7-15" edge="1">
          <mxGeometry relative="1" as="geometry">
            <Array as="points">
              <mxPoint x="540" y="450" />
              <mxPoint x="540" y="724" />
            </Array>
          </mxGeometry>
        </mxCell>
        <mxCell id="dBSqW-nUZNY3NmuCGNXq-66" value="FHIR" style="edgeLabel;html=1;align=center;verticalAlign=middle;resizable=0;points=[];" parent="dBSqW-nUZNY3NmuCGNXq-42" vertex="1" connectable="0">
          <mxGeometry x="0.9079" y="-2" relative="1" as="geometry">
            <mxPoint y="13" as="offset" />
          </mxGeometry>
        </mxCell>
        <mxCell id="dBSqW-nUZNY3NmuCGNXq-45" style="edgeStyle=orthogonalEdgeStyle;rounded=1;orthogonalLoop=1;jettySize=auto;html=1;entryX=0;entryY=0.5;entryDx=0;entryDy=0;fillColor=#f8cecc;strokeColor=#b85450;exitX=1;exitY=0.5;exitDx=0;exitDy=0;" parent="1" source="rFX8mtm5hQzeOM3P0BqO-16" target="-eUWRqWdqUH9GwN5srD7-33" edge="1">
          <mxGeometry relative="1" as="geometry">
            <Array as="points">
              <mxPoint x="540" y="450" />
              <mxPoint x="540" y="828" />
            </Array>
          </mxGeometry>
        </mxCell>
        <mxCell id="dBSqW-nUZNY3NmuCGNXq-64" style="edgeStyle=orthogonalEdgeStyle;rounded=1;orthogonalLoop=1;jettySize=auto;html=1;entryX=0;entryY=0.5;entryDx=0;entryDy=0;fillColor=#f8cecc;strokeColor=#b85450;" parent="1" source="rFX8mtm5hQzeOM3P0BqO-16" target="-eUWRqWdqUH9GwN5srD7-31" edge="1">
          <mxGeometry relative="1" as="geometry">
            <Array as="points">
              <mxPoint x="540" y="450" />
              <mxPoint x="540" y="775" />
            </Array>
          </mxGeometry>
        </mxCell>
        <mxCell id="rFX8mtm5hQzeOM3P0BqO-16" value="Clientmodul&lt;br style=&quot;border-color: var(--border-color);&quot;&gt;KIM 2.0&lt;br&gt;&lt;br&gt;(Dual Stack KIM 1.5 und 2.0)" style="rounded=0;whiteSpace=wrap;html=1;fillColor=#dae8fc;strokeColor=#6c8ebf;" parent="1" vertex="1">
          <mxGeometry x="240" y="360" width="100" height="180" as="geometry" />
        </mxCell>
        <mxCell id="-eUWRqWdqUH9GwN5srD7-24" style="edgeStyle=orthogonalEdgeStyle;rounded=1;orthogonalLoop=1;jettySize=auto;html=1;entryX=0.5;entryY=1;entryDx=0;entryDy=0;fillColor=#dae8fc;strokeColor=#6c8ebf;exitX=0.5;exitY=0;exitDx=0;exitDy=0;" parent="1" source="rFX8mtm5hQzeOM3P0BqO-23" target="-eUWRqWdqUH9GwN5srD7-17" edge="1">
          <mxGeometry relative="1" as="geometry">
            <Array as="points">
              <mxPoint x="840" y="240" />
              <mxPoint x="920" y="240" />
            </Array>
          </mxGeometry>
        </mxCell>
        <mxCell id="-eUWRqWdqUH9GwN5srD7-25" value="REST" style="edgeLabel;html=1;align=center;verticalAlign=middle;resizable=0;points=[];" parent="-eUWRqWdqUH9GwN5srD7-24" vertex="1" connectable="0">
          <mxGeometry x="0.5888" y="-4" relative="1" as="geometry">
            <mxPoint x="16" y="-10" as="offset" />
          </mxGeometry>
        </mxCell>
        <mxCell id="-eUWRqWdqUH9GwN5srD7-46" style="edgeStyle=orthogonalEdgeStyle;rounded=1;orthogonalLoop=1;jettySize=auto;html=1;fillColor=#dae8fc;strokeColor=#6c8ebf;" parent="1" source="rFX8mtm5hQzeOM3P0BqO-23" target="-eUWRqWdqUH9GwN5srD7-32" edge="1">
          <mxGeometry relative="1" as="geometry">
            <Array as="points">
              <mxPoint x="840" y="330" />
              <mxPoint x="920" y="330" />
            </Array>
          </mxGeometry>
        </mxCell>
        <mxCell id="dBSqW-nUZNY3NmuCGNXq-55" style="edgeStyle=orthogonalEdgeStyle;rounded=1;orthogonalLoop=1;jettySize=auto;html=1;entryX=0.5;entryY=0;entryDx=0;entryDy=0;fillColor=#d5e8d4;strokeColor=#82b366;" parent="1" source="rFX8mtm5hQzeOM3P0BqO-23" target="rFX8mtm5hQzeOM3P0BqO-35" edge="1">
          <mxGeometry relative="1" as="geometry" />
        </mxCell>
        <mxCell id="rFX8mtm5hQzeOM3P0BqO-23" value="SZZP" style="rounded=0;whiteSpace=wrap;html=1;fillColor=#fff2cc;strokeColor=#d6b656;" parent="1" vertex="1">
          <mxGeometry x="805" y="350" width="70" height="30" as="geometry" />
        </mxCell>
        <mxCell id="dBSqW-nUZNY3NmuCGNXq-33" style="edgeStyle=orthogonalEdgeStyle;rounded=1;orthogonalLoop=1;jettySize=auto;html=1;entryX=0.5;entryY=0;entryDx=0;entryDy=0;fillColor=#f8cecc;strokeColor=#b85450;" parent="1" source="rFX8mtm5hQzeOM3P0BqO-26" target="dBSqW-nUZNY3NmuCGNXq-2" edge="1">
          <mxGeometry relative="1" as="geometry" />
        </mxCell>
        <mxCell id="dBSqW-nUZNY3NmuCGNXq-35" style="edgeStyle=orthogonalEdgeStyle;rounded=1;orthogonalLoop=1;jettySize=auto;html=1;entryX=0;entryY=0.5;entryDx=0;entryDy=0;fillColor=#d5e8d4;strokeColor=#82b366;" parent="1" source="rFX8mtm5hQzeOM3P0BqO-26" target="rFX8mtm5hQzeOM3P0BqO-35" edge="1">
          <mxGeometry relative="1" as="geometry" />
        </mxCell>
        <mxCell id="rFX8mtm5hQzeOM3P0BqO-26" value="Internet&lt;br&gt;GW" style="rounded=0;whiteSpace=wrap;html=1;" parent="1" vertex="1">
          <mxGeometry x="610" y="419.5" width="50" height="60" as="geometry" />
        </mxCell>
        <mxCell id="dBSqW-nUZNY3NmuCGNXq-17" style="edgeStyle=orthogonalEdgeStyle;rounded=0;orthogonalLoop=1;jettySize=auto;html=1;entryX=0;entryY=0.5;entryDx=0;entryDy=0;fillColor=#d5e8d4;strokeColor=#82b366;" parent="1" source="rFX8mtm5hQzeOM3P0BqO-35" target="dBSqW-nUZNY3NmuCGNXq-12" edge="1">
          <mxGeometry relative="1" as="geometry" />
        </mxCell>
        <mxCell id="dBSqW-nUZNY3NmuCGNXq-18" style="edgeStyle=orthogonalEdgeStyle;rounded=1;orthogonalLoop=1;jettySize=auto;html=1;entryX=0;entryY=0.5;entryDx=0;entryDy=0;fillColor=#d5e8d4;strokeColor=#82b366;" parent="1" source="rFX8mtm5hQzeOM3P0BqO-35" target="-eUWRqWdqUH9GwN5srD7-4" edge="1">
          <mxGeometry relative="1" as="geometry" />
        </mxCell>
        <mxCell id="dBSqW-nUZNY3NmuCGNXq-34" style="edgeStyle=orthogonalEdgeStyle;rounded=1;orthogonalLoop=1;jettySize=auto;html=1;entryX=1;entryY=0.5;entryDx=0;entryDy=0;fillColor=#d5e8d4;strokeColor=#82b366;" parent="1" source="rFX8mtm5hQzeOM3P0BqO-35" target="rFX8mtm5hQzeOM3P0BqO-26" edge="1">
          <mxGeometry relative="1" as="geometry" />
        </mxCell>
        <mxCell id="dBSqW-nUZNY3NmuCGNXq-56" style="edgeStyle=orthogonalEdgeStyle;rounded=1;orthogonalLoop=1;jettySize=auto;html=1;entryX=0;entryY=0.5;entryDx=0;entryDy=0;fillColor=#d5e8d4;strokeColor=#82b366;" parent="1" source="rFX8mtm5hQzeOM3P0BqO-35" target="rFX8mtm5hQzeOM3P0BqO-23" edge="1">
          <mxGeometry relative="1" as="geometry">
            <Array as="points">
              <mxPoint x="750" y="365" />
            </Array>
          </mxGeometry>
        </mxCell>
        <mxCell id="dBSqW-nUZNY3NmuCGNXq-59" style="edgeStyle=orthogonalEdgeStyle;rounded=1;orthogonalLoop=1;jettySize=auto;html=1;entryX=0;entryY=0.5;entryDx=0;entryDy=0;fillColor=#d5e8d4;strokeColor=#82b366;" parent="1" source="rFX8mtm5hQzeOM3P0BqO-35" target="dBSqW-nUZNY3NmuCGNXq-57" edge="1">
          <mxGeometry relative="1" as="geometry" />
        </mxCell>
        <mxCell id="dBSqW-nUZNY3NmuCGNXq-60" style="edgeStyle=orthogonalEdgeStyle;rounded=1;orthogonalLoop=1;jettySize=auto;html=1;entryX=0;entryY=0.5;entryDx=0;entryDy=0;fillColor=#d5e8d4;strokeColor=#82b366;" parent="1" source="rFX8mtm5hQzeOM3P0BqO-35" target="dBSqW-nUZNY3NmuCGNXq-15" edge="1">
          <mxGeometry relative="1" as="geometry" />
        </mxCell>
        <mxCell id="dBSqW-nUZNY3NmuCGNXq-61" style="edgeStyle=orthogonalEdgeStyle;rounded=1;orthogonalLoop=1;jettySize=auto;html=1;entryX=0;entryY=0.5;entryDx=0;entryDy=0;fillColor=#d5e8d4;strokeColor=#82b366;" parent="1" source="rFX8mtm5hQzeOM3P0BqO-35" target="-eUWRqWdqUH9GwN5srD7-1" edge="1">
          <mxGeometry relative="1" as="geometry" />
        </mxCell>
        <mxCell id="dBSqW-nUZNY3NmuCGNXq-62" style="edgeStyle=orthogonalEdgeStyle;rounded=1;orthogonalLoop=1;jettySize=auto;html=1;entryX=0;entryY=0.5;entryDx=0;entryDy=0;fillColor=#d5e8d4;strokeColor=#82b366;" parent="1" source="rFX8mtm5hQzeOM3P0BqO-35" target="-eUWRqWdqUH9GwN5srD7-14" edge="1">
          <mxGeometry relative="1" as="geometry" />
        </mxCell>
        <mxCell id="rFX8mtm5hQzeOM3P0BqO-35" value="PEP / PDP&lt;br&gt;(Proxy)" style="rounded=0;whiteSpace=wrap;html=1;fillColor=#f8cecc;strokeColor=#b85450;" parent="1" vertex="1">
          <mxGeometry x="709" y="434" width="80" height="31" as="geometry" />
        </mxCell>
        <mxCell id="-eUWRqWdqUH9GwN5srD7-15" value="VZD FHIR-Dir" style="whiteSpace=wrap;html=1;fillColor=#fff2cc;strokeColor=#d6b656;" parent="1" vertex="1">
          <mxGeometry x="610" y="709" width="80" height="30" as="geometry" />
        </mxCell>
        <mxCell id="-eUWRqWdqUH9GwN5srD7-17" value="VZD LDAP-Dir" style="whiteSpace=wrap;html=1;fillColor=#fff2cc;strokeColor=#d6b656;" parent="1" vertex="1">
          <mxGeometry x="880" y="157" width="80" height="40" as="geometry" />
        </mxCell>
        <mxCell id="-eUWRqWdqUH9GwN5srD7-31" value="gematik IDP" style="whiteSpace=wrap;html=1;fillColor=#fff2cc;strokeColor=#d6b656;" parent="1" vertex="1">
          <mxGeometry x="610" y="760" width="80" height="30" as="geometry" />
        </mxCell>
        <mxCell id="-eUWRqWdqUH9GwN5srD7-32" value="TI DNS" style="whiteSpace=wrap;html=1;fillColor=#fff2cc;strokeColor=#d6b656;" parent="1" vertex="1">
          <mxGeometry x="880" y="280" width="80" height="30" as="geometry" />
        </mxCell>
        <mxCell id="-eUWRqWdqUH9GwN5srD7-33" value="Internet DNS" style="whiteSpace=wrap;html=1;" parent="1" vertex="1">
          <mxGeometry x="610" y="813" width="80" height="30" as="geometry" />
        </mxCell>
        <mxCell id="-eUWRqWdqUH9GwN5srD7-34" value="TSP für&lt;br&gt;S/MIME" style="whiteSpace=wrap;html=1;fillColor=#fff2cc;strokeColor=#d6b656;" parent="1" vertex="1">
          <mxGeometry x="835" y="709" width="80" height="30" as="geometry" />
        </mxCell>
        <mxCell id="-eUWRqWdqUH9GwN5srD7-59" value="&lt;font style=&quot;font-size: 12px;&quot;&gt;&lt;b&gt;KIM 2.0 Architektur&lt;/b&gt;&lt;br&gt;Herausgeber: gematik, Team KIM&lt;br&gt;Datum: 16.01.2024&lt;/font&gt;" style="rounded=0;whiteSpace=wrap;html=1;align=left;" parent="1" vertex="1">
          <mxGeometry x="770" y="830" width="190" height="50" as="geometry" />
        </mxCell>
        <mxCell id="-eUWRqWdqUH9GwN5srD7-65" style="edgeStyle=orthogonalEdgeStyle;rounded=0;orthogonalLoop=1;jettySize=auto;html=1;entryX=0.5;entryY=1;entryDx=0;entryDy=0;" parent="1" source="-eUWRqWdqUH9GwN5srD7-60" target="-eUWRqWdqUH9GwN5srD7-62" edge="1">
          <mxGeometry relative="1" as="geometry" />
        </mxCell>
        <mxCell id="-eUWRqWdqUH9GwN5srD7-60" value="Konnektor" style="rounded=0;whiteSpace=wrap;html=1;fillColor=#fff2cc;strokeColor=#d6b656;" parent="1" vertex="1">
          <mxGeometry x="389" y="147" width="80" height="60" as="geometry" />
        </mxCell>
        <mxCell id="-eUWRqWdqUH9GwN5srD7-66" style="edgeStyle=orthogonalEdgeStyle;rounded=0;orthogonalLoop=1;jettySize=auto;html=1;entryX=0.5;entryY=1;entryDx=0;entryDy=0;" parent="1" source="-eUWRqWdqUH9GwN5srD7-61" target="-eUWRqWdqUH9GwN5srD7-63" edge="1">
          <mxGeometry relative="1" as="geometry" />
        </mxCell>
        <mxCell id="-eUWRqWdqUH9GwN5srD7-61" value="Konnektor" style="rounded=0;whiteSpace=wrap;html=1;fillColor=#fff2cc;strokeColor=#d6b656;" parent="1" vertex="1">
          <mxGeometry x="389" y="350" width="80" height="60" as="geometry" />
        </mxCell>
        <mxCell id="-eUWRqWdqUH9GwN5srD7-62" value="eHealth KT" style="rounded=0;whiteSpace=wrap;html=1;fillColor=#fff2cc;strokeColor=#d6b656;" parent="1" vertex="1">
          <mxGeometry x="389" y="97" width="80" height="30" as="geometry" />
        </mxCell>
        <mxCell id="-eUWRqWdqUH9GwN5srD7-63" value="eHealth KT" style="rounded=0;whiteSpace=wrap;html=1;fillColor=#fff2cc;strokeColor=#d6b656;" parent="1" vertex="1">
          <mxGeometry x="389" y="300" width="80" height="30" as="geometry" />
        </mxCell>
        <mxCell id="rFX8mtm5hQzeOM3P0BqO-15" style="edgeStyle=orthogonalEdgeStyle;rounded=1;orthogonalLoop=1;jettySize=auto;html=1;entryX=0;entryY=0.5;entryDx=0;entryDy=0;exitX=1;exitY=0.5;exitDx=0;exitDy=0;strokeWidth=5;fillColor=#f8cecc;strokeColor=#b85450;endArrow=none;endFill=0;" parent="1" source="-eUWRqWdqUH9GwN5srD7-61" target="rFX8mtm5hQzeOM3P0BqO-1" edge="1">
          <mxGeometry relative="1" as="geometry">
            <Array as="points">
              <mxPoint x="520" y="380" />
              <mxPoint x="520" y="230" />
              <mxPoint x="610" y="230" />
              <mxPoint x="610" y="177" />
            </Array>
            <mxPoint x="440" y="340" as="sourcePoint" />
          </mxGeometry>
        </mxCell>
        <mxCell id="rFX8mtm5hQzeOM3P0BqO-38" value="TI-Tunnel" style="edgeLabel;html=1;align=center;verticalAlign=middle;resizable=0;points=[];" parent="rFX8mtm5hQzeOM3P0BqO-15" vertex="1" connectable="0">
          <mxGeometry x="-0.1291" y="2" relative="1" as="geometry">
            <mxPoint x="32" y="-18" as="offset" />
          </mxGeometry>
        </mxCell>
        <mxCell id="-eUWRqWdqUH9GwN5srD7-67" value="&lt;div style=&quot;&quot;&gt;&lt;span style=&quot;background-color: initial;&quot;&gt;&lt;b&gt;Legende&lt;/b&gt;&lt;/span&gt;&lt;/div&gt;" style="rounded=0;whiteSpace=wrap;html=1;align=left;verticalAlign=top;strokeColor=#919191;" parent="1" vertex="1">
          <mxGeometry x="70" y="730" width="170" height="150" as="geometry" />
        </mxCell>
        <mxCell id="-eUWRqWdqUH9GwN5srD7-68" value="KIM Komponente" style="rounded=0;whiteSpace=wrap;html=1;fillColor=#dae8fc;strokeColor=#6c8ebf;" parent="1" vertex="1">
          <mxGeometry x="76" y="813" width="130" height="20" as="geometry" />
        </mxCell>
        <mxCell id="-eUWRqWdqUH9GwN5srD7-69" value="TI Komponente" style="rounded=0;whiteSpace=wrap;html=1;fillColor=#fff2cc;strokeColor=#d6b656;" parent="1" vertex="1">
          <mxGeometry x="76" y="833" width="130" height="20" as="geometry" />
        </mxCell>
        <mxCell id="-eUWRqWdqUH9GwN5srD7-70" value="Zero Trust Komponente" style="rounded=0;whiteSpace=wrap;html=1;fillColor=#f8cecc;strokeColor=#b85450;" parent="1" vertex="1">
          <mxGeometry x="76" y="853" width="130" height="20" as="geometry" />
        </mxCell>
        <mxCell id="-eUWRqWdqUH9GwN5srD7-72" value="Clientmodul&lt;br style=&quot;border-color: var(--border-color);&quot;&gt;KIM 1.x" style="rounded=0;whiteSpace=wrap;html=1;fillColor=#dae8fc;strokeColor=#6c8ebf;" parent="1" vertex="1">
          <mxGeometry x="240" y="147" width="80" height="60" as="geometry" />
        </mxCell>
        <mxCell id="dBSqW-nUZNY3NmuCGNXq-26" style="edgeStyle=orthogonalEdgeStyle;rounded=1;orthogonalLoop=1;jettySize=auto;html=1;fillColor=#f8cecc;strokeColor=#b85450;" parent="1" source="-eUWRqWdqUH9GwN5srD7-73" target="dBSqW-nUZNY3NmuCGNXq-25" edge="1">
          <mxGeometry relative="1" as="geometry" />
        </mxCell>
        <mxCell id="dBSqW-nUZNY3NmuCGNXq-41" style="edgeStyle=orthogonalEdgeStyle;rounded=1;orthogonalLoop=1;jettySize=auto;html=1;entryX=0.5;entryY=0;entryDx=0;entryDy=0;fillColor=#f8cecc;strokeColor=#b85450;" parent="1" source="-eUWRqWdqUH9GwN5srD7-73" target="-eUWRqWdqUH9GwN5srD7-26" edge="1">
          <mxGeometry relative="1" as="geometry" />
        </mxCell>
        <mxCell id="dBSqW-nUZNY3NmuCGNXq-48" style="edgeStyle=orthogonalEdgeStyle;rounded=1;orthogonalLoop=1;jettySize=auto;html=1;entryX=0;entryY=0.5;entryDx=0;entryDy=0;fillColor=#f8cecc;strokeColor=#b85450;" parent="1" source="-eUWRqWdqUH9GwN5srD7-73" target="-eUWRqWdqUH9GwN5srD7-33" edge="1">
          <mxGeometry relative="1" as="geometry">
            <Array as="points">
              <mxPoint x="570" y="660" />
              <mxPoint x="570" y="828" />
            </Array>
          </mxGeometry>
        </mxCell>
        <mxCell id="dBSqW-nUZNY3NmuCGNXq-65" style="edgeStyle=orthogonalEdgeStyle;rounded=1;orthogonalLoop=1;jettySize=auto;html=1;entryX=0;entryY=0.5;entryDx=0;entryDy=0;fillColor=#f8cecc;strokeColor=#b85450;" parent="1" source="-eUWRqWdqUH9GwN5srD7-73" target="-eUWRqWdqUH9GwN5srD7-31" edge="1">
          <mxGeometry relative="1" as="geometry">
            <Array as="points">
              <mxPoint x="570" y="660" />
              <mxPoint x="570" y="775" />
            </Array>
          </mxGeometry>
        </mxCell>
        <mxCell id="dBSqW-nUZNY3NmuCGNXq-68" value="OIDC" style="edgeLabel;html=1;align=center;verticalAlign=middle;resizable=0;points=[];" parent="dBSqW-nUZNY3NmuCGNXq-65" vertex="1" connectable="0">
          <mxGeometry x="0.9274" relative="1" as="geometry">
            <mxPoint x="-3" y="15" as="offset" />
          </mxGeometry>
        </mxCell>
        <mxCell id="-eUWRqWdqUH9GwN5srD7-73" value="Mobile App&lt;br style=&quot;border-color: var(--border-color);&quot;&gt;KIM 2.0&lt;br style=&quot;border-color: var(--border-color);&quot;&gt;Nutzer C" style="rounded=0;whiteSpace=wrap;html=1;" parent="1" vertex="1">
          <mxGeometry x="90" y="630" width="80" height="60" as="geometry" />
        </mxCell>
        <mxCell id="-eUWRqWdqUH9GwN5srD7-74" value="Clientsystem&lt;br style=&quot;border-color: var(--border-color);&quot;&gt;Nutzer A" style="rounded=0;whiteSpace=wrap;html=1;" parent="1" vertex="1">
          <mxGeometry x="80" y="147" width="80" height="60" as="geometry" />
        </mxCell>
        <mxCell id="-eUWRqWdqUH9GwN5srD7-75" value="" style="endArrow=classic;html=1;rounded=0;fillColor=#f8cecc;strokeColor=#b85450;" parent="1" edge="1">
          <mxGeometry width="50" height="50" relative="1" as="geometry">
            <mxPoint x="76" y="761" as="sourcePoint" />
            <mxPoint x="196" y="761" as="targetPoint" />
          </mxGeometry>
        </mxCell>
        <mxCell id="-eUWRqWdqUH9GwN5srD7-76" value="Internet" style="edgeLabel;html=1;align=center;verticalAlign=middle;resizable=0;points=[];" parent="-eUWRqWdqUH9GwN5srD7-75" vertex="1" connectable="0">
          <mxGeometry x="-0.401" y="1" relative="1" as="geometry">
            <mxPoint x="19" y="12" as="offset" />
          </mxGeometry>
        </mxCell>
        <mxCell id="-eUWRqWdqUH9GwN5srD7-77" value="" style="endArrow=classic;html=1;rounded=0;fillColor=#dae8fc;strokeColor=#6c8ebf;" parent="1" edge="1">
          <mxGeometry width="50" height="50" relative="1" as="geometry">
            <mxPoint x="76" y="787" as="sourcePoint" />
            <mxPoint x="196" y="787" as="targetPoint" />
          </mxGeometry>
        </mxCell>
        <mxCell id="-eUWRqWdqUH9GwN5srD7-78" value="Zentrales Netz der TI" style="edgeLabel;html=1;align=center;verticalAlign=middle;resizable=0;points=[];" parent="-eUWRqWdqUH9GwN5srD7-77" vertex="1" connectable="0">
          <mxGeometry x="-0.401" y="1" relative="1" as="geometry">
            <mxPoint x="19" y="12" as="offset" />
          </mxGeometry>
        </mxCell>
        <mxCell id="dBSqW-nUZNY3NmuCGNXq-12" value="OAuth Server" style="rounded=0;whiteSpace=wrap;html=1;" parent="1" vertex="1">
          <mxGeometry x="820" y="434.5" width="95" height="31" as="geometry" />
        </mxCell>
        <mxCell id="dBSqW-nUZNY3NmuCGNXq-25" value="OS&lt;br&gt;App&lt;br&gt;Attestation Service" style="whiteSpace=wrap;html=1;" parent="1" vertex="1">
          <mxGeometry x="260" y="770" width="60" height="70" as="geometry" />
        </mxCell>
        <mxCell id="dBSqW-nUZNY3NmuCGNXq-2" value="PAP/PIP" style="whiteSpace=wrap;html=1;fillColor=#f8cecc;strokeColor=#b85450;" parent="1" vertex="1">
          <mxGeometry x="469" y="770" width="50" height="30" as="geometry" />
        </mxCell>
        <mxCell id="-eUWRqWdqUH9GwN5srD7-26" value="GMS" style="whiteSpace=wrap;html=1;fillColor=#f8cecc;strokeColor=#b85450;" parent="1" vertex="1">
          <mxGeometry x="400" y="770" width="50" height="30" as="geometry" />
        </mxCell>
        <mxCell id="dBSqW-nUZNY3NmuCGNXq-51" value="Nutzer A&lt;br style=&quot;border-color: var(--border-color);&quot;&gt;KIM 1.x" style="rounded=0;whiteSpace=wrap;html=1;" parent="1" vertex="1">
          <mxGeometry x="95" y="390" width="75" height="40" as="geometry" />
        </mxCell>
        <mxCell id="dBSqW-nUZNY3NmuCGNXq-52" value="Nutzer B&lt;br style=&quot;border-color: var(--border-color);&quot;&gt;KIM 2.0" style="rounded=0;whiteSpace=wrap;html=1;" parent="1" vertex="1">
          <mxGeometry x="95" y="478" width="75" height="40" as="geometry" />
        </mxCell>
        <mxCell id="-eUWRqWdqUH9GwN5srD7-1" value="Cert Storage" style="rounded=0;whiteSpace=wrap;html=1;" parent="1" vertex="1">
          <mxGeometry x="780" y="579" width="135" height="20" as="geometry" />
        </mxCell>
        <mxCell id="-eUWRqWdqUH9GwN5srD7-4" value="Mail-Server" style="rounded=0;whiteSpace=wrap;html=1;" parent="1" vertex="1">
          <mxGeometry x="780" y="488" width="135" height="20" as="geometry" />
        </mxCell>
        <mxCell id="_YToFg9XoBP7hvk7RpTx-2" style="edgeStyle=orthogonalEdgeStyle;rounded=1;orthogonalLoop=1;jettySize=auto;html=1;entryX=1;entryY=0.5;entryDx=0;entryDy=0;fillColor=#f8cecc;strokeColor=#b85450;curved=0;" edge="1" parent="1" source="-eUWRqWdqUH9GwN5srD7-14" target="-eUWRqWdqUH9GwN5srD7-34">
          <mxGeometry relative="1" as="geometry">
            <Array as="points">
              <mxPoint x="950" y="620" />
              <mxPoint x="950" y="724" />
            </Array>
          </mxGeometry>
        </mxCell>
        <mxCell id="-eUWRqWdqUH9GwN5srD7-14" value="AccountManager" style="rounded=0;whiteSpace=wrap;html=1;" parent="1" vertex="1">
          <mxGeometry x="780" y="609" width="135" height="22" as="geometry" />
        </mxCell>
        <mxCell id="dBSqW-nUZNY3NmuCGNXq-63" style="edgeStyle=orthogonalEdgeStyle;rounded=1;orthogonalLoop=1;jettySize=auto;html=1;fillColor=#d5e8d4;strokeColor=#82b366;entryX=0.5;entryY=1;entryDx=0;entryDy=0;exitX=0;exitY=0.5;exitDx=0;exitDy=0;" parent="1" source="R-mK6MjUkUVTy9SFVLj5-2" target="rFX8mtm5hQzeOM3P0BqO-35" edge="1">
          <mxGeometry relative="1" as="geometry">
            <mxPoint x="750" y="470" as="targetPoint" />
            <Array as="points">
              <mxPoint x="749" y="651" />
            </Array>
          </mxGeometry>
        </mxCell>
        <mxCell id="dBSqW-nUZNY3NmuCGNXq-15" value="Caching NS (TI und Int)" style="rounded=0;whiteSpace=wrap;html=1;" parent="1" vertex="1">
          <mxGeometry x="780" y="549" width="135" height="20" as="geometry" />
        </mxCell>
        <mxCell id="dBSqW-nUZNY3NmuCGNXq-57" value="KAS" style="rounded=0;whiteSpace=wrap;html=1;" parent="1" vertex="1">
          <mxGeometry x="780" y="518" width="135" height="20" as="geometry" />
        </mxCell>
        <mxCell id="dBSqW-nUZNY3NmuCGNXq-69" value="TI KIM Adresse" style="text;html=1;strokeColor=#6c8ebf;fillColor=#dae8fc;align=left;verticalAlign=middle;whiteSpace=wrap;rounded=0;fontSize=10;" parent="1" vertex="1">
          <mxGeometry x="90" y="690" width="80" height="9.5" as="geometry" />
        </mxCell>
        <mxCell id="dBSqW-nUZNY3NmuCGNXq-72" value="TI KIM Adresse" style="text;html=1;strokeColor=#6c8ebf;fillColor=#dae8fc;align=left;verticalAlign=middle;whiteSpace=wrap;rounded=0;fontSize=10;" parent="1" vertex="1">
          <mxGeometry x="95" y="430" width="75" height="9.5" as="geometry" />
        </mxCell>
        <mxCell id="dBSqW-nUZNY3NmuCGNXq-74" value="TI KIM Adresse" style="text;html=1;strokeColor=#6c8ebf;fillColor=#dae8fc;align=left;verticalAlign=middle;whiteSpace=wrap;rounded=0;fontSize=10;" parent="1" vertex="1">
          <mxGeometry x="95" y="518" width="75" height="9.5" as="geometry" />
        </mxCell>
        <mxCell id="dBSqW-nUZNY3NmuCGNXq-75" value="TI KIM Adresse" style="text;html=1;strokeColor=#6c8ebf;fillColor=#dae8fc;align=left;verticalAlign=middle;whiteSpace=wrap;rounded=0;fontSize=10;" parent="1" vertex="1">
          <mxGeometry x="80" y="207" width="80" height="9.5" as="geometry" />
        </mxCell>
        <mxCell id="_YToFg9XoBP7hvk7RpTx-4" style="edgeStyle=orthogonalEdgeStyle;rounded=1;orthogonalLoop=1;jettySize=auto;html=1;entryX=0.5;entryY=0;entryDx=0;entryDy=0;fillColor=#f8cecc;strokeColor=#b85450;curved=0;" edge="1" parent="1" source="R-mK6MjUkUVTy9SFVLj5-2" target="R-mK6MjUkUVTy9SFVLj5-4">
          <mxGeometry relative="1" as="geometry" />
        </mxCell>
        <mxCell id="R-mK6MjUkUVTy9SFVLj5-2" value="Push-Service" style="rounded=0;whiteSpace=wrap;html=1;" parent="1" vertex="1">
          <mxGeometry x="780" y="640" width="135" height="22" as="geometry" />
        </mxCell>
        <mxCell id="_YToFg9XoBP7hvk7RpTx-5" style="edgeStyle=orthogonalEdgeStyle;rounded=1;orthogonalLoop=1;jettySize=auto;html=1;entryX=0.5;entryY=1;entryDx=0;entryDy=0;fillColor=#f8cecc;strokeColor=#b85450;curved=0;" edge="1" parent="1" source="R-mK6MjUkUVTy9SFVLj5-4" target="R-mK6MjUkUVTy9SFVLj5-5">
          <mxGeometry relative="1" as="geometry">
            <Array as="points">
              <mxPoint x="760" y="860" />
              <mxPoint x="359" y="860" />
            </Array>
          </mxGeometry>
        </mxCell>
        <mxCell id="R-mK6MjUkUVTy9SFVLj5-4" value="Push Gateway der App" style="rounded=0;whiteSpace=wrap;html=1;" parent="1" vertex="1">
          <mxGeometry x="720" y="709" width="80" height="60" as="geometry" />
        </mxCell>
        <mxCell id="_YToFg9XoBP7hvk7RpTx-3" style="edgeStyle=orthogonalEdgeStyle;rounded=1;orthogonalLoop=1;jettySize=auto;html=1;entryX=1;entryY=0.75;entryDx=0;entryDy=0;curved=0;fillColor=#f8cecc;strokeColor=#b85450;" edge="1" parent="1" source="R-mK6MjUkUVTy9SFVLj5-5" target="-eUWRqWdqUH9GwN5srD7-73">
          <mxGeometry relative="1" as="geometry">
            <Array as="points">
              <mxPoint x="360" y="675" />
            </Array>
          </mxGeometry>
        </mxCell>
        <mxCell id="R-mK6MjUkUVTy9SFVLj5-5" value="OS&lt;br&gt;Push Notification Service" style="whiteSpace=wrap;html=1;" parent="1" vertex="1">
          <mxGeometry x="329" y="770" width="60" height="70" as="geometry" />
        </mxCell>
      </root>
    </mxGraphModel>
  </diagram>
</mxfile>
